<?xml version="1.0" encoding="utf-8"?>
<svg xmlns="http://www.w3.org/2000/svg" version="1.1" width="119" height="76" viewBox="0 0 65535 41969"><svg xmlns:xlink="http://www.w3.org/1999/xlink" version="1.1" id="Ebene_1" viewBox="0 0 119.3 76.4" style="enable-background:new 0 0 119.3 76.4;" space="preserve" width="65535" height="41969">
<style type="text/css">
	.st0{fill:#6496C8;}
	.st1{fill:#002F6F;}
	.st2{fill:#717171;}
</style>
<rect x="86.7" y="19.9" class="st0" width="19.3" height="19.3"/>
<g>
	<path class="st1" d="M1.2,39.5V0.8h9.1v38.7H1.2z"/>
	<path class="st1" d="M28.1,40c-3.4,0-6.2-0.2-12.6-2.6l2.1-7.5c7.8,2.4,9.1,2.5,11.5,2.5c2.6,0,4.1-1.4,4.1-3.9   c0-2-1.1-2.9-3.2-3.6l-6.2-2.2c-4.7-1.6-8.2-4.8-8.2-10.5c0-7.5,6-11.9,14-11.9c2.8,0,5.5,0.3,11.2,1.7l-1.9,7.6   c-6-1.4-8.2-1.7-10.2-1.7c-2.5,0-4.1,1.1-4.1,3.7c0,1.8,1.1,2.6,3.3,3.4l6.2,2.2c4.7,1.7,8.1,4.7,8.1,10.7C42.2,35.9,36,40,28.1,40   z"/>
	<path class="st1" d="M61.5,40c-10.4,0-16.2-5.4-16.2-19.7c0-13.8,6-20,16.2-20c10.3,0,16.2,5.6,16.2,19.9   C77.8,34.3,71.7,40,61.5,40z M61.5,7.7c-4.9,0-6.6,1.8-6.6,12.5c0,10.5,1.8,12.4,6.7,12.4s6.7-1.9,6.7-12.4   C68.2,9.5,66.1,7.7,61.5,7.7z"/>
</g>
<g>
	<g>
		<path class="st2" d="M5.2,56.6H4.1v3.2H1.8v-10h3.5c2.2,0,3.5,0.9,3.5,3.3C8.8,55.6,7.1,56.6,5.2,56.6z M5.2,51.7H4.1v3h1    c0.7,0,1.2-0.3,1.2-1.6C6.4,52,5.9,51.7,5.2,51.7z"/>
		<path class="st2" d="M14.6,59.8v-0.6h-0.1c-1.1,0.6-1.8,0.7-2.3,0.7c-1.2,0-1.8-0.8-1.8-2v-5.4h2v5c0,0.3,0.1,0.5,0.5,0.5    c0.5,0,1-0.1,1.5-0.4v-5.1h2.1v7.3L14.6,59.8L14.6,59.8z"/>
		<path class="st2" d="M22.2,60c-0.6,0-1-0.1-1.6-0.4l-0.1,0.2h-1.9V49.5l2.1-0.2v3.8h0.1c0.7-0.5,1.2-0.6,1.7-0.6    c1.6,0,2.6,0.9,2.6,3.7C25,58.9,23.7,60,22.2,60z M21.8,54.2c-0.3,0-0.6,0.1-1.2,0.4v3.4c0.5,0.2,0.8,0.2,1.1,0.2    c0.8,0,1.2-0.4,1.2-2.2C22.8,54.6,22.5,54.2,21.8,54.2z"/>
		<path class="st2" d="M26.5,59.8V49.5l2.1-0.2v10.6H26.5z"/>
		<path class="st2" d="M31.6,51.8c-0.7,0-1.2-0.4-1.2-1.1c0-0.7,0.5-1.1,1.2-1.1c0.7,0,1.2,0.4,1.2,1.1    C32.8,51.3,32.4,51.8,31.6,51.8z M30.6,59.8v-7.3h2.1v7.3H30.6z"/>
		<path class="st2" d="M37.4,60c-2,0-3.1-1.1-3.1-3.8c0-2.5,1.2-3.7,3.1-3.7c0.6,0,1,0,2,0.3L39,54.6c-0.7-0.2-1.1-0.3-1.4-0.3    c-0.8,0-1.1,0.4-1.1,1.9c0,1.6,0.3,2,1.2,2c0.3,0,0.7-0.1,1.5-0.5l0.4,1.8C38.3,59.9,37.8,60,37.4,60z"/>
		<path class="st2" d="M46.5,60c-0.9,0-1.6-0.1-3.3-0.7l0.5-2c2,0.6,2.3,0.6,3,0.6c0.7,0,1.1-0.4,1.1-1c0-0.5-0.3-0.7-0.8-0.9    l-1.6-0.6c-1.2-0.4-2.1-1.2-2.1-2.7c0-1.9,1.5-3.1,3.6-3.1c0.7,0,1.4,0.1,2.9,0.5l-0.5,2c-1.6-0.4-2.1-0.5-2.6-0.5    c-0.6,0-1.1,0.3-1.1,1c0,0.5,0.3,0.7,0.9,0.9l1.6,0.6c1.2,0.4,2.1,1.2,2.1,2.7C50.1,59,48.6,60,46.5,60z"/>
		<path class="st2" d="M54.6,60c-2.2,0-3.4-1.2-3.4-3.6c0-2.7,1.2-3.9,3.2-3.9c1.8,0,2.8,1,2.8,3c0,0.3,0,0.7-0.1,1.3    c0,0-1.8,0.1-3.8,0.1c0,1.1,0.3,1.4,1.2,1.4c0.3,0,0.7,0,2.2-0.5l0.4,1.7C56,59.8,55.2,60,54.6,60z M55.3,55    c0-0.8-0.3-1.1-0.9-1.1c-0.7,0-1,0.3-1,1.6c0,0,1.1,0,1.8,0C55.3,55.3,55.3,55.2,55.3,55z"/>
		<path class="st2" d="M62.9,54.7c-0.3-0.1-0.6-0.1-0.8-0.1c-0.5,0-0.8,0.1-1.2,0.4v5h-2.1v-7.3h2.1v0.7H61c0.7-0.6,1.1-0.8,1.5-0.8    c0.2,0,0.4,0,0.6,0.1L62.9,54.7z"/>
		<path class="st2" d="M68.1,59.8h-2.3l-2.2-7.3h2.1l1.1,3.9c0.1,0.4,0.1,0.9,0.1,1.1h0.1c0-0.2,0.1-0.8,0.1-1.1l1.1-3.9h2    L68.1,59.8z"/>
		<path class="st2" d="M72.5,51.8c-0.7,0-1.2-0.4-1.2-1.1c0-0.7,0.5-1.1,1.2-1.1c0.7,0,1.2,0.4,1.2,1.1    C73.8,51.3,73.3,51.8,72.5,51.8z M71.5,59.8v-7.3h2.1v7.3H71.5z"/>
		<path class="st2" d="M78.2,60c-2,0-3.1-1.1-3.1-3.8c0-2.5,1.2-3.7,3.1-3.7c0.6,0,1,0,2,0.3l-0.4,1.8c-0.7-0.2-1.1-0.3-1.4-0.3    c-0.8,0-1.1,0.4-1.1,1.9c0,1.6,0.3,2,1.2,2c0.3,0,0.7-0.1,1.5-0.5l0.4,1.8C79.2,59.9,78.7,60,78.2,60z"/>
		<path class="st2" d="M84.7,60c-2.2,0-3.4-1.2-3.4-3.6c0-2.7,1.2-3.9,3.2-3.9c1.8,0,2.8,1,2.8,3c0,0.3,0,0.7-0.1,1.3    c0,0-1.8,0.1-3.8,0.1c0,1.1,0.3,1.4,1.2,1.4c0.3,0,0.7,0,2.2-0.5l0.4,1.7C86.1,59.8,85.2,60,84.7,60z M85.4,55    c0-0.8-0.3-1.1-0.9-1.1c-0.7,0-1,0.3-1,1.6c0,0,1.1,0,1.8,0C85.4,55.3,85.4,55.2,85.4,55z"/>
		<path class="st2" d="M91,60c-0.6,0-1.1-0.1-2.5-0.5l0.4-1.7c1.6,0.4,2,0.5,2.3,0.5c0.4,0,0.6-0.1,0.6-0.5c0-0.4-0.1-0.5-0.7-0.7    L90,56.7c-0.9-0.3-1.4-0.9-1.4-1.8c0-1.6,1.3-2.5,2.8-2.5c0.5,0,1.1,0,2.2,0.2l-0.4,1.7c-1.3-0.2-1.6-0.3-2-0.3    c-0.4,0-0.6,0.1-0.6,0.6c0,0.3,0.1,0.4,0.7,0.6l1.1,0.4c0.9,0.3,1.4,0.8,1.4,2C93.8,59.2,92.7,60,91,60z"/>
	</g>
	<g>
		<path class="st2" d="M1.8,73.5v-8.1h1.1v8.1H1.8z"/>
		<path class="st2" d="M7.7,66.3v7.1H6.6v-7.1h-2v-0.9h5.2v0.9H7.7z"/>
		<path class="st2" d="M16.3,65.9c-0.2,0-0.4-0.1-0.5-0.1c-0.6,0-0.9,0.2-0.9,0.9v1h1.5v0.9h-1.5v5h-1v-5h-0.8v-0.9h0.8v-0.7    c0-1.3,0.6-2,1.8-2c0.1,0,0.4,0,0.6,0.1L16.3,65.9z"/>
		<path class="st2" d="M21.4,73.5V73h-0.1c-1,0.5-1.6,0.6-2.1,0.6c-0.9,0-1.4-0.4-1.4-1.3v-4.7h1V72c0,0.5,0.1,0.6,0.7,0.6    c0.5,0,1.1-0.1,1.7-0.5v-4.6h1v5.8L21.4,73.5L21.4,73.5z M19.1,66.8c-0.3,0-0.5-0.2-0.5-0.5c0-0.4,0.2-0.5,0.5-0.5    s0.5,0.2,0.5,0.5C19.6,66.6,19.4,66.8,19.1,66.8z M21.2,66.8c-0.3,0-0.5-0.2-0.5-0.5c0-0.4,0.2-0.5,0.5-0.5s0.5,0.2,0.5,0.5    C21.7,66.6,21.5,66.8,21.2,66.8z"/>
		<path class="st2" d="M27.2,68.6c-0.1,0-0.3-0.1-0.4-0.1c-0.4,0-0.7,0.1-1.3,0.5v4.4h-1v-5.8h1v0.6h0.1c0.8-0.6,1.1-0.7,1.4-0.7    c0.1,0,0.2,0,0.4,0.1L27.2,68.6z"/>
		<path class="st2" d="M31.2,73.5v-8.1h4.6v0.9h-3.4v2.6h3.3v0.9h-3.3v2.7h3.5l0.1,0.9L31.2,73.5L31.2,73.5z"/>
		<path class="st2" d="M36.8,71v-0.8H39V71H36.8z"/>
		<path class="st2" d="M43.3,73.6c-2.3,0-3.3-1.3-3.3-4.2c0-3,1.1-4.1,3.4-4.1c0.6,0,1.2,0.1,2.3,0.4l-0.2,1c-1-0.4-1.5-0.4-2-0.4    c-1.5,0-2.3,0.5-2.3,3.2c0,2.6,0.7,3.2,2.1,3.2c0.4,0,0.8-0.1,1.5-0.2v-2.5h-1.6V69h2.6v4.1C44.8,73.5,43.9,73.6,43.3,73.6z"/>
		<path class="st2" d="M50.1,73.6c-1.5,0-2.5-0.9-2.5-3c0-2.2,1-3,2.5-3c1.4,0,2.5,0.7,2.5,3C52.6,72.7,51.6,73.6,50.1,73.6z     M50.1,68.3c-0.9,0-1.5,0.4-1.5,2.2c0,1.7,0.5,2.2,1.5,2.2c1,0,1.5-0.5,1.5-2.2C51.5,68.7,51,68.3,50.1,68.3z"/>
		<path class="st2" d="M56.6,73.5h-1.1l-1.8-5.8h1l1.3,4.1c0.1,0.2,0.1,0.6,0.1,0.8h0.1c0-0.1,0.1-0.5,0.1-0.8l1.2-4.1h1L56.6,73.5z    "/>
		<path class="st2" d="M62,73.6c-1.7,0-2.5-1-2.5-2.9c0-2.2,0.9-3.2,2.4-3.2c1.3,0,2.1,0.7,2.1,2.2c0,0.2,0,1,0,1    c-1.1,0-2.2,0-3.4,0.1c0,1.5,0.4,1.9,1.4,1.9c0.2,0,0.6,0,1.7-0.4l0.2,0.9C62.8,73.5,62.3,73.6,62,73.6z M63,69.6    c0-0.9-0.4-1.4-1.1-1.4c-0.8,0-1.3,0.5-1.3,1.9c0.8,0,2.5,0,2.5,0C63,69.9,63,69.7,63,69.6z"/>
		<path class="st2" d="M68.4,68.6c-0.1,0-0.3-0.1-0.4-0.1c-0.4,0-0.7,0.1-1.3,0.5v4.4h-1v-5.8h1v0.6h0.1c0.8-0.6,1.1-0.7,1.4-0.7    c0.1,0,0.2,0,0.4,0.1L68.4,68.6z"/>
		<path class="st2" d="M73.5,73.5v-4.4c0-0.5-0.1-0.6-0.7-0.6c-0.5,0-1.1,0.1-1.8,0.5v4.6h-1v-5.8h1v0.5h0.1    c1.1-0.5,1.5-0.6,2.1-0.6c0.8,0,1.4,0.3,1.4,1.3v4.7L73.5,73.5L73.5,73.5z"/>
		<path class="st2" d="M83.2,73.5v-4.4c0-0.5-0.1-0.6-0.7-0.6c-0.4,0-0.9,0.1-1.6,0.5v4.6h-1v-4.4c0-0.5-0.1-0.6-0.6-0.6    c-0.4,0-1,0.1-1.6,0.5v4.6h-1v-5.8h1v0.5h0.1c1.1-0.5,1.5-0.6,2-0.6c0.5,0,0.9,0.1,1,0.6h0.1c1-0.5,1.5-0.6,2-0.6    c0.9,0,1.3,0.4,1.3,1.3v4.7L83.2,73.5L83.2,73.5z"/>
		<path class="st2" d="M88.4,73.6c-1.7,0-2.5-1-2.5-2.9c0-2.2,0.9-3.2,2.4-3.2c1.3,0,2.1,0.7,2.1,2.2c0,0.2,0,1,0,1    c-1.1,0-2.2,0-3.4,0.1c0,1.5,0.4,1.9,1.4,1.9c0.2,0,0.6,0,1.7-0.4l0.2,0.9C89.3,73.5,88.8,73.6,88.4,73.6z M89.4,69.6    c0-0.9-0.4-1.4-1.1-1.4c-0.8,0-1.3,0.5-1.3,1.9c0.8,0,2.5,0,2.5,0C89.4,69.9,89.4,69.7,89.4,69.6z"/>
		<path class="st2" d="M95.7,73.5v-4.4c0-0.5-0.1-0.6-0.7-0.6c-0.5,0-1.1,0.1-1.8,0.5v4.6h-1v-5.8h1v0.5h0.1    c1.1-0.5,1.5-0.6,2.1-0.6c0.8,0,1.4,0.3,1.4,1.3v4.7L95.7,73.5L95.7,73.5z"/>
		<path class="st2" d="M100.3,73.6c-0.8,0-1.1-0.4-1.1-1.2v-3.8h-0.8v-0.9h0.8v-1.3l1-0.2v1.5h1.7v0.9h-1.7v3.8    c0,0.2,0.1,0.4,0.4,0.4c0.2,0,0.4,0,1.3-0.4l0.2,0.9C101,73.6,100.7,73.6,100.3,73.6z"/>
	</g>
</g>
</svg></svg>
